# xmcd
#
# Track frame offsets:
#	182
#	18282
#	34362
#	46235
#	60827
#	69512
#	80747
#	93782
#	117377
#	138465
#	155590
#	168525
#
# Disc length: 2408
#
# Revision: 3
# Processed by: cddbd v1.5.1PL0 Copyright (c) Steve Scherf et al.
# Submitted via: dBpowerAMP V4.0
# Normalized: r2:DSETVAR1,TDELIM( - )
#
DISCID=9a09660c
DTITLE=Various Artist - New Country January 1996
DYEAR=1900
DGENRE=country
TTITLE0=Jann Browne - Hearts on a Blue Train
TTITLE1=Gail Davies - In the Worst Way
TTITLE2=Cactua Brothers - Redhead
TTITLE3=Ted Roddy - She's Been Gone
TTITLE4=Lost and Found - It's Another World
TTITLE5=Big Sandy and His Fly-Rite Boys - My Sinful Days Are Over
TTITLE6=Nashville Bluegrass Band - Blackbirds and Crows
TTITLE7=John Stewart - Midnight Wind
TTITLE8=Mindy Jostyn - All Roads
TTITLE9=Anthony Crawford - On the Edge
TTITLE10=The Reno Brothers - Mr. Coachman
TTITLE11=Jim Matt - Vince Gill, Ricky Skaggs and Me
EXTD=cd sampler
EXTT0=
EXTT1=
EXTT2=
EXTT3=
EXTT4=
EXTT5=
EXTT6=
EXTT7=
EXTT8=
EXTT9=
EXTT10=
EXTT11=
PLAYORDER=
